# xmcd
#
# Track frame offsets: 
#        150
#        16162
#        33674
#        53211
#        69373
#        84410
#        98547
#        114484
#        130646
#        146658
#        164845
#        178532
#        194619
#        208756
#        222968
#        236730
#        253117
#        271604
#        287616
#
# Disc length: 4032 seconds
#
# Revision: 2
# Processed by: cddbd v1.5.2PL0 Copyright (c) Steve Scherf et al.
# Submitted via: ExactAudioCopy v0.99pb4
#
DISCID=140fbe13
DTITLE=Various Artist - 201009 PO Country Radio
DYEAR=2010
DGENRE=Country
TTITLE0=John Rich - Country Done Come To Town @
TTITLE1=Darius Rucker - Come Back Song
TTITLE2=Kenny Chesney - The Boys Of Fall
TTITLE3=Reba McEntire - Turn On The Radio
TTITLE4=Josh Gracin - Cover Girl
TTITLE5=Joe Nichols - The Shape I'm In @
TTITLE6=James Wesley - Real @
TTITLE7=Johnny Bufford - Don't Make Me Love You
TTITLE8=George Strait - The Breath You Take
TTITLE9=Poe and Burns - How Long Is Long Enough
TTITLE10=Jessie James - Boys In The Summer @
TTITLE11=Brantley Gilbert - My Kind Of Crazy
TTITLE12=Miranda Lambert - Only Prettier
TTITLE13=Todd O'Neill - Somethin With Some Additude
TTITLE14=Chris Young - Voices
TTITLE15=Craig Campbell - Family Man
TTITLE16=Mark Chesnutt - Lovin Her Was Easier
TTITLE17=Train - Hey Soul Sister (Country Mix)
TTITLE18=Blake Wise - Cornfields
EXTD=
EXTT0=
EXTT1=
EXTT2=
EXTT3=
EXTT4=
EXTT5=
EXTT6=
EXTT7=
EXTT8=
EXTT9=
EXTT10=
EXTT11=
EXTT12=
EXTT13=
EXTT14=
EXTT15=
EXTT16=
EXTT17=
EXTT18=
PLAYORDER=
